# xmcd
#
# Track frame offsets: 
#        150
#        10977
#        30497
#        43724
#        56916
#        79865
#        97040
#        112864
#        130589
#        142896
#        154808
#        167015
#
# Disc length: 2512 seconds
#
# Revision: 2
# Processed by: cddbd v1.4PL0 Copyright (c) Steve Scherf et al.
# Submitted via: ExactAudioCopy v0.90b4
#
DISCID=9209ce0c
DTITLE=FLEETWOOD MAC - Mr.Wonderful
DYEAR=1968
DGENRE=Blues
TTITLE0=Stop Messin' Round
TTITLE1=I've Lost My Baby
TTITLE2=Rollin' Man
TTITLE3=Dust My Broom
TTITLE4=Love That Burns
TTITLE5=Doctor Brown
TTITLE6=Need Your Love Tonight
TTITLE7=If You Be My Baby
TTITLE8=Evenin' Boogie
TTITLE9=Lazy Poker Blues
TTITLE10=Coming Home
TTITLE11=Trying So Hard To Forget
EXTD=
EXTT0=
EXTT1=
EXTT2=
EXTT3=
EXTT4=
EXTT5=
EXTT6=
EXTT7=
EXTT8=
EXTT9=
EXTT10=
EXTT11=
PLAYORDER=
